<?xml version="1.0"?>
<svg width="1280" height="1168" xmlns="http://www.w3.org/2000/svg" xmlns:svg="http://www.w3.org/2000/svg" preserveAspectRatio="xMidYMid meet" version="1.0">
 <g class="layer">
  <title>Layer 1</title>
  <g fill="#000000" id="svg_1" transform="translate(0.000000,1168.000000) scale(0.100000,-0.100000)">
   <path d="m6180,11669c-1246,-55 -2216,-184 -3205,-426c-905,-221 -1692,-509 -2470,-904c-427,-216 -455,-231 -455,-252c0,-57 198,-815 335,-1282c81,-276 245,-775 255,-775c3,0 14,15 25,33c110,189 343,401 563,511c65,33 72,39 66,59c-4,12 -24,76 -44,142c-77,244 -164,546 -223,767l-34,127l46,22c1158,551 2363,884 3836,1059c486,58 1159,103 1535,103c586,0 1669,-98 2250,-203c30,-6 141,-26 245,-45c941,-170 1827,-438 2622,-794c184,-82 303,-139 303,-144c0,-18 -190,-683 -245,-857c-15,-47 -37,-116 -48,-154c-25,-81 -37,-64 113,-155c52,-32 203,-124 334,-205c131,-81 242,-144 246,-139c15,16 175,528 278,888c118,412 276,1045 264,1056c-7,7 -125,71 -384,207c-319,168 -800,379 -1214,532c-755,280 -1675,514 -2519,640c-77,11 -167,25 -200,30c-297,48 -1018,119 -1415,140c-313,16 -645,30 -666,29c-11,-1 -98,-5 -194,-10z" fill="#ff0008" id="top"/>
   <path d="m5800,9879c-636,-18 -987,-47 -1199,-100c-278,-69 -627,-229 -891,-407c-82,-56 -335,-245 -350,-262c-15,-17 -229,-199 -250,-213c-23,-14 -31,-14 -110,5c-75,18 -94,19 -164,10c-171,-25 -296,-123 -296,-234c0,-19 13,-60 30,-93c16,-33 30,-76 30,-96c0,-33 -4,-38 -39,-52c-73,-29 -157,-47 -406,-82c-355,-51 -506,-82 -660,-136c-290,-101 -477,-269 -546,-488c-23,-75 -47,-247 -35,-258c8,-9 6,-12 136,158c170,221 291,333 436,401c62,29 78,33 159,33c83,0 95,-3 151,-33c68,-37 139,-102 210,-192c57,-72 74,-76 74,-17c0,50 -25,135 -68,234c-18,39 -32,78 -32,86c0,17 35,21 330,37c96,5 200,12 230,15c30,3 190,14 355,25c165,11 320,22 345,25c25,3 146,12 270,20c124,8 360,24 525,35c165,12 392,22 505,23c188,2 205,1 204,-15c-2,-22 -138,-208 -320,-437c-116,-145 -154,-186 -196,-210c-112,-64 -441,-153 -948,-255c-151,-31 -300,-62 -330,-70l-55,-14l86,-1c85,-1 431,20 649,39c138,13 478,38 610,47c113,7 114,7 208,143c135,195 209,288 312,391c210,212 415,330 672,385c124,27 358,25 508,-5c195,-38 346,-92 610,-216c238,-112 243,-105 60,81c-82,83 -130,140 -130,153c0,15 10,23 38,31c91,27 426,111 517,129c55,11 132,27 170,35c504,106 1256,215 1845,268c338,30 1049,33 1235,5c155,-23 301,-60 373,-95l57,-27l3,-52c4,-74 -13,-104 -131,-221c-133,-133 -153,-146 -267,-171c-52,-12 -105,-24 -117,-26c-13,-3 -23,-11 -23,-19c0,-11 43,-15 208,-20c536,-17 532,-16 538,-42c3,-12 3,-33 -1,-45c-8,-25 -79,-105 -109,-122c-16,-9 -361,-13 -1383,-17l-1362,-5l-223,-112c-700,-353 -1392,-715 -1404,-734c-8,-14 5,-11 116,27c198,67 578,181 815,244c391,103 1085,282 1165,300c19,4 341,11 715,14c2779,25 2734,24 2722,59c-4,13 -157,119 -503,352c-221,148 -277,191 -300,236c-17,33 -40,172 -49,292c-6,75 -3,103 16,177l23,89l-24,26c-53,56 -284,146 -537,209c-192,48 -449,97 -573,110c-263,28 -360,36 -525,41l-190,6l-105,46c-481,208 -785,306 -1195,387c-71,15 -150,31 -175,36c-79,17 -221,38 -360,55c-74,9 -180,22 -235,30c-157,22 -199,25 -570,35c-192,5 -397,12 -455,14c-58,2 -247,0 -420,-5zm-499,-203c143,-38 234,-78 334,-147c76,-52 168,-161 208,-249c25,-53 57,-188 56,-234c-2,-103 -25,-121 -169,-136c-58,-6 -157,-20 -220,-30c-63,-11 -146,-24 -185,-30c-38,-5 -196,-30 -350,-54c-248,-40 -450,-66 -506,-66c-40,0 -25,34 130,295c83,138 164,282 205,360c35,66 105,130 158,143c124,31 296,-12 448,-113c124,-82 216,-203 208,-273c-7,-58 -207,-132 -633,-233c-162,-38 -172,-47 -35,-28c172,23 312,40 430,55c143,17 233,30 306,45c97,19 108,98 35,254c-116,248 -322,383 -634,416c-202,22 -512,-34 -776,-138c-294,-116 -543,-276 -778,-498c-123,-117 -166,-165 -146,-165c4,0 26,16 48,36c71,64 218,180 280,221c257,172 565,316 768,359c99,21 147,19 147,-5c0,-22 -46,-104 -162,-295c-268,-437 -284,-461 -321,-480c-30,-15 -236,-56 -352,-71c-50,-6 -404,-63 -565,-90c-47,-8 -109,-15 -137,-15c-48,0 -53,2 -53,23c1,24 6,32 76,115c294,343 542,575 789,737c211,138 585,282 830,319c17,2 129,3 250,1c199,-3 229,-5 316,-29zm2709,-49c209,-42 239,-49 305,-68c65,-20 144,-46 270,-89c82,-28 359,-142 372,-152c37,-29 -22,-43 -302,-67c-326,-29 -324,-29 -697,-51c-405,-24 -565,-26 -593,-6c-22,15 -204,114 -370,201c-151,80 -309,171 -364,212c-2,1 2,9 8,17c18,21 77,23 726,21c482,-1 572,-4 645,-18z" fill="#ff0008" id="car_up"/>
   <path d="m8270,8599c-170,-18 -337,-52 -702,-144c-205,-51 -419,-101 -475,-111c-57,-10 -103,-22 -103,-28c0,-17 101,-146 133,-169c27,-21 28,-21 585,-8c1017,23 1491,37 1498,44c4,4 5,9 3,11c-2,2 -88,13 -191,24c-121,13 -199,26 -225,38c-21,10 -114,93 -209,186c-146,144 -175,168 -200,167c-16,-1 -67,-6 -114,-10z" fill="#ff0008" id="svg_2"/>
   <path d="m5135,8013c-73,-16 -160,-52 -225,-91c-165,-101 -349,-339 -414,-537c-26,-81 -50,-113 -93,-124c-55,-14 -341,-29 -773,-41c-206,-6 -550,-20 -765,-30c-507,-26 -589,-26 -614,-1c-10,10 -44,65 -76,122c-146,263 -157,264 -106,10c21,-104 28,-158 22,-186c-6,-38 -9,-33 -68,140c-105,310 -213,534 -294,610c-56,53 -110,65 -178,41c-97,-35 -231,-164 -335,-324c-178,-270 -200,-638 -58,-957c119,-269 474,-988 531,-1077l31,-48l420,0l421,0l-58,113c-33,61 -75,137 -94,167c-77,120 -149,267 -149,303c0,55 44,87 118,87c71,-1 90,-5 627,-129c242,-55 499,-115 570,-131c485,-111 711,-163 855,-195c313,-70 324,-74 456,-161l80,-54l3014,2l3014,3l-154,135c-197,171 -293,266 -288,282c3,7 56,21 134,34c71,11 201,41 289,66c185,53 217,61 379,94c274,56 460,161 525,297c19,38 22,60 19,107c-6,84 -17,94 -99,87c-91,-8 -103,2 -97,75c4,44 14,70 51,129c69,108 74,135 43,229c-30,86 -29,88 28,173c32,47 41,69 44,116c4,53 2,61 -24,90c-27,30 -35,33 -124,41c-123,12 -643,12 -980,0c-146,-5 -593,-14 -995,-20l-730,-11l-50,-30c-138,-82 -204,-101 -405,-114c-149,-10 -200,-22 -373,-87c-198,-73 -428,-155 -732,-258c-447,-151 -670,-233 -694,-254c-23,-21 -23,-23 -17,-161c9,-190 9,-269 1,-293c-9,-31 -61,-41 -171,-35c-150,9 -140,-5 -234,338c-53,191 -189,600 -239,716c-129,299 -359,563 -586,675c-120,59 -286,88 -380,67zm172,-295c88,-22 257,-196 327,-337c155,-309 205,-756 124,-1106c-60,-262 -213,-497 -377,-578c-53,-26 -76,-31 -135,-31c-109,-1 -174,33 -286,150c-101,107 -152,186 -209,329c-50,124 -77,247 -92,407c-15,165 -6,426 20,543c53,245 162,453 284,544c130,97 206,115 344,79zm-3537,-28c11,-11 20,-28 20,-38c0,-21 -55,-102 -69,-102c-13,0 -61,-74 -61,-93c0,-29 82,-101 152,-134c52,-24 69,-38 74,-58c10,-41 -3,-96 -29,-124c-78,-83 -75,-158 10,-252c29,-32 42,-39 73,-39c20,0 57,-3 82,-6c43,-6 45,-8 70,-65l26,-58l-23,-27c-29,-34 -45,-95 -52,-198l-6,-79l42,6c43,5 71,-9 71,-38c0,-20 -156,-28 -282,-15c-188,19 -300,71 -430,201c-73,73 -93,101 -131,180c-66,138 -81,207 -74,331c19,333 233,625 460,627c44,1 61,-3 77,-19zm9564,-416c9,-8 16,-27 16,-40c0,-29 -82,-284 -115,-360c-22,-49 -25,-52 -74,-63c-58,-12 -629,-55 -946,-71c-345,-17 -319,-10 -539,-135c-74,-41 -163,-88 -198,-104l-63,-28l-630,-12c-346,-7 -684,-16 -750,-21c-143,-11 -193,-26 -495,-153c-184,-77 -224,-90 -275,-91l-60,-1l-7,50c-3,28 -7,145 -7,262c-1,159 2,214 12,220c6,4 53,22 102,39c115,41 204,76 674,269c312,128 398,159 455,166c39,4 312,13 606,19c294,6 589,15 655,20c66,6 316,15 555,21c239,6 527,14 640,18c359,14 427,13 444,-5z" id="svg_5"/>
   <path d="m5123,7666c-84,-27 -145,-82 -220,-201c-35,-55 -120,-229 -152,-312c-18,-46 -19,-53 -4,-64c13,-11 18,-9 35,14c49,67 59,26 69,-294c8,-244 12,-294 35,-397c28,-124 61,-207 94,-237c36,-32 44,-6 21,66c-60,187 -89,441 -76,652c17,253 105,510 233,679c58,77 66,94 46,102c-21,8 -32,7 -81,-8z" id="svg_6"/>
   <path d="m5325,7558c-22,-11 -72,-54 -112,-96c-70,-72 -72,-76 -58,-101c18,-35 64,-77 165,-148c90,-64 157,-103 177,-103c50,0 96,236 60,306c-8,16 -43,59 -77,97c-69,75 -87,81 -155,45z" id="svg_7"/>
   <path d="m5067,7204c-18,-35 -43,-149 -57,-262c-6,-46 -14,-90 -17,-98c-7,-19 34,-18 154,1c191,31 192,36 44,245c-108,152 -106,149 -124,114z" id="svg_8"/>
   <path d="m5593,6971c-57,-19 -115,-60 -139,-96c-8,-12 -20,-50 -26,-84c-10,-52 -9,-69 6,-117c32,-102 125,-174 222,-174c79,0 79,-1 76,162c-1,79 -5,180 -8,226c-6,77 -9,84 -31,93c-32,12 -39,11 -100,-10z" id="svg_9"/>
   <path d="m5004,6653c3,-10 10,-70 16,-133c10,-106 32,-218 49,-248c9,-16 47,24 140,148c76,103 100,152 82,174c-12,14 -85,37 -194,61c-89,19 -100,19 -93,-2z" id="svg_10"/>
   <path d="m5410,6335c-36,-25 -113,-78 -172,-117c-63,-41 -108,-78 -108,-87c0,-49 150,-222 235,-272c74,-43 109,-39 161,17c24,25 48,61 55,81c13,42 8,144 -15,268c-19,100 -42,149 -72,153c-10,1 -48,-18 -84,-43z" id="svg_11"/>
   <path d="m4880,5975c0,-36 154,-185 229,-221c47,-22 64,-26 111,-21c94,10 97,14 53,59c-21,22 -55,53 -76,70l-38,31l-39,-18c-22,-10 -49,-15 -62,-11c-13,3 -54,33 -92,66c-73,63 -86,70 -86,45z" id="svg_12"/>
   <path d="m1518,7343c-23,-40 -78,-200 -78,-228c0,-31 16,-35 101,-23c100,13 139,31 139,60c0,24 -117,209 -135,215c-6,2 -18,-9 -27,-24z" id="svg_13"/>
   <path d="m1453,6907c6,-58 51,-166 85,-207l22,-25l20,25c31,39 90,160 90,186c0,18 -8,25 -37,33c-50,13 -173,41 -180,41c-3,0 -3,-24 0,-53z" id="svg_14"/>
   <path d="m1799,6702c-13,-10 -57,-37 -96,-61c-40,-24 -73,-45 -73,-48c0,-47 241,-192 280,-168c15,9 12,65 -10,158c-32,140 -48,159 -101,119z" id="svg_15"/>
   <path d="m10980,7186c-16,-49 -29,-56 -110,-63c-65,-5 -71,-8 -68,-27c3,-20 9,-21 87,-20c82,1 86,2 113,33c23,26 28,40 26,69c-4,51 -32,55 -48,8z" id="svg_16"/>
   <path d="m11171,7181c-12,-22 -29,-42 -38,-44c-10,-3 -31,-8 -46,-11c-20,-5 -27,-12 -25,-24c4,-23 68,-28 106,-8c31,16 65,75 60,104c-6,33 -36,25 -57,-17z" id="svg_17"/>
   <path d="m9917,7184c-4,-4 -7,-29 -7,-55c0,-51 -8,-59 -62,-59c-25,0 -29,-3 -26,-22c3,-20 10,-23 50,-26c70,-5 90,19 86,101c-2,46 -7,63 -18,65c-9,1 -19,0 -23,-4z" id="svg_18"/>
   <path d="m10185,7166c-3,-14 -7,-37 -10,-50c-6,-28 -29,-36 -108,-36c-55,0 -58,-1 -55,-22c3,-21 11,-24 72,-30c82,-8 110,1 131,42c21,41 17,114 -7,118c-12,2 -19,-5 -23,-22z" id="svg_19"/>
   <path d="m10450,7171c-5,-11 -10,-26 -10,-35c0,-26 -42,-46 -95,-46c-28,0 -59,-6 -70,-13c-33,-25 -8,-37 81,-37c70,0 87,3 103,19c22,22 45,96 37,117c-8,20 -34,17 -46,-5z" id="svg_20"/>
   <path d="m10724,7173c-19,-60 -18,-60 -99,-66c-86,-6 -108,-18 -83,-43c14,-14 30,-15 101,-9c103,8 130,28 125,91c-3,43 -33,61 -44,27z" id="svg_21"/>
   <path d="m9509,7126c-3,-3 -151,-10 -329,-16c-179,-7 -415,-15 -525,-19l-200,-7l-265,-128c-295,-142 -330,-161 -330,-182c0,-17 52,-123 87,-175c13,-20 36,-40 50,-44c14,-3 123,-1 242,5c119,6 404,17 635,25c240,8 423,18 428,23c15,15 38,120 38,171c0,67 19,165 39,196c10,18 49,46 106,75c98,51 120,80 62,80c-18,0 -36,-2 -38,-4zm-584,-188c28,-72 16,-132 -44,-215c-41,-56 -83,-70 -155,-49c-73,21 -93,20 -145,-9c-23,-14 -51,-25 -61,-25c-33,0 -147,40 -174,61c-24,19 -26,26 -26,104c0,57 4,86 13,94c15,11 140,54 195,66c18,4 61,1 95,-5c59,-12 66,-11 147,17c79,28 87,29 112,14c15,-8 34,-32 43,-53z" id="svg_22"/>
   <path d="m8521,6909c-26,-28 -45,-101 -38,-150c7,-54 19,-66 54,-53c57,19 102,149 73,205c-14,26 -64,25 -89,-2z" id="svg_23"/>
   <path d="m8797,6899c-38,-22 -71,-133 -49,-165c14,-21 45,-25 69,-8c26,17 73,106 73,140c0,40 -50,58 -93,33z" id="svg_24"/>
   <path d="m11095,6954c-35,-55 -39,-84 -12,-84c7,0 20,6 29,13c24,18 61,95 54,112c-11,29 -36,14 -71,-41z" id="svg_25"/>
   <path d="m10732,6991c-8,-4 -16,-26 -19,-48l-5,-40l-80,-6c-84,-5 -105,-15 -95,-41c5,-13 24,-16 92,-16c83,0 88,1 117,30c27,27 30,36 25,72c-6,46 -16,61 -35,49z" id="svg_26"/>
   <path d="m10993,6988c-4,-7 -14,-26 -23,-43c-13,-27 -22,-31 -75,-37c-78,-10 -85,-13 -85,-39c0,-20 4,-21 79,-18c61,3 84,9 101,24c29,26 53,81 45,106c-7,22 -30,25 -42,7z" id="svg_27"/>
   <path d="m10450,6935c-5,-14 -10,-33 -10,-41c0,-8 -1,-14 -2,-15c-2,0 -38,-4 -81,-8c-79,-9 -105,-20 -93,-40c9,-14 143,-14 184,0c34,12 55,52 50,95c-4,39 -35,44 -48,9z" id="svg_28"/>
   <path d="m9914,6913c-9,-52 -20,-63 -63,-63c-46,0 -77,-20 -67,-45c5,-15 14,-17 68,-11c34,4 70,12 80,17c33,18 38,131 6,137c-13,2 -19,-6 -24,-35z" id="svg_29"/>
   <path d="m10183,6903l-9,-38l-79,-7c-82,-8 -102,-16 -92,-42c5,-12 21,-16 64,-16c61,1 139,13 150,24c4,3 8,31 11,61c4,50 3,55 -16,55c-15,0 -22,-9 -29,-37z" id="svg_30"/>
   <path d="m4167,4894c-4,-4 -7,-19 -7,-33c0,-40 -10,-47 -78,-54c-206,-21 -400,-144 -473,-300c-60,-129 -62,-289 -5,-409c54,-113 188,-210 334,-239l63,-13l-7,-46c-15,-93 -29,-85 146,-88c172,-3 180,0 180,64c0,57 7,64 64,64c62,0 179,31 255,68c122,60 237,200 265,322c62,269 -60,472 -329,547c-84,24 -94,29 -90,47c2,12 6,32 7,46l3,25l-161,3c-88,1 -163,-1 -167,-4zm-65,-369c3,-3 -3,-58 -13,-123c-10,-64 -24,-152 -30,-194c-13,-88 -24,-95 -84,-58c-83,51 -96,183 -28,287c35,55 133,110 155,88zm414,-33c66,-48 81,-165 33,-259c-42,-82 -169,-150 -169,-90c0,22 49,341 56,366c5,16 46,8 80,-17z" fill="#ff0008" id="F"/>
   <path d="m7011,4855c-212,-48 -381,-202 -438,-399c-66,-228 -21,-433 126,-568c155,-142 395,-183 627,-107c60,19 62,21 68,62c3,23 14,95 24,160c11,64 17,117 14,117c-3,0 -28,-11 -56,-24c-67,-31 -141,-46 -229,-46c-168,1 -262,86 -261,236c0,132 75,232 201,269c79,23 203,16 303,-18c41,-14 76,-24 78,-22c7,7 55,295 50,300c-3,3 -36,15 -74,26c-91,28 -337,36 -433,14z" id="svg_32"/>
   <path d="m12270,4850c-212,-57 -365,-201 -424,-400c-23,-75 -31,-221 -17,-295c51,-269 321,-445 626,-407c93,12 182,36 201,56c12,12 60,303 52,312c-3,3 -28,-6 -55,-19c-89,-45 -247,-62 -335,-35c-65,19 -125,80 -144,145c-18,62 -14,140 10,198c22,52 81,110 139,136c45,21 67,24 162,24c92,-1 122,-5 185,-27c41,-14 76,-25 77,-24c6,5 53,299 49,303c-3,3 -38,14 -78,25c-110,31 -346,35 -448,8z" id="svg_33"/>
   <path d="m515,4668c-60,-106 -117,-206 -126,-223c-9,-16 -47,-84 -84,-150c-38,-66 -87,-154 -110,-195c-24,-41 -74,-131 -113,-200c-39,-68 -69,-126 -67,-128c4,-5 336,-4 340,0c2,2 26,47 55,101l52,97l182,0l182,0l18,-92c11,-51 22,-96 25,-100c3,-4 80,-8 171,-8l165,-2l-1,24c-1,17 -213,872 -260,1046c-6,22 -9,22 -163,22l-156,0l-110,-192zm221,-245c3,-21 12,-69 20,-106c21,-104 26,-97 -76,-97l-90,0l60,120c34,66 65,120 70,120c5,0 12,-17 16,-37z" fill="#ff0008" id="A"/>
   <path d="m5433,4848c-5,-7 -32,-53 -60,-103c-28,-49 -107,-189 -175,-310c-278,-491 -370,-657 -365,-662c9,-8 330,-5 337,4c4,4 29,50 56,100l49,93l181,0l182,0l16,-77c9,-43 19,-88 22,-100c4,-23 6,-23 174,-23c155,0 170,2 170,18c0,9 -60,253 -134,542l-133,525l-155,3c-117,2 -158,-1 -165,-10zm111,-405c2,-10 12,-56 21,-103c9,-47 19,-93 21,-102c5,-16 -4,-18 -85,-18c-50,0 -91,2 -91,5c0,12 115,235 122,235c3,0 9,-8 12,-17z" fill="#ff0008" id="L"/>
   <path d="m1626,4828c-5,-24 -23,-127 -56,-323c-64,-373 -123,-477 -257,-447c-41,9 -41,9 -46,-22c-44,-257 -43,-247 -23,-261c26,-20 133,-28 198,-16c217,40 335,233 419,689c10,57 21,107 24,113c4,5 54,9 112,9l105,0l-5,-52c-5,-51 -26,-189 -85,-559c-15,-97 -27,-180 -25,-185c3,-9 312,-8 321,1c3,3 16,69 28,148c12,78 41,261 64,407c23,146 48,303 55,350c7,47 16,104 20,128l8,42l-427,0l-426,0l-4,-22z" fill="#ff0008" id="svg_36"/>
   <path d="m2645,4828c-2,-13 -18,-111 -35,-218c-40,-257 -76,-491 -106,-674c-13,-81 -24,-152 -24,-157c0,-5 124,-9 288,-9c310,0 350,5 458,56c30,14 78,45 107,69c172,140 194,387 46,533c-82,83 -174,112 -351,112c-72,0 -98,3 -98,13c0,6 11,74 24,149c12,76 21,140 18,143c-3,3 -76,5 -163,5c-156,0 -159,0 -164,-22zm428,-562c42,-17 67,-55 67,-102c0,-45 -48,-97 -105,-113c-45,-12 -171,-15 -178,-3c-5,6 20,191 28,220c6,17 146,16 188,-2z" fill="#ff0008" id="лг"/>
   <path d="m7671,4713c-112,-701 -148,-939 -144,-945c2,-5 195,-8 428,-8l423,0l6,28c15,74 36,208 36,233l0,29l-254,0c-140,0 -257,4 -260,8c-3,5 0,39 6,75l11,67l203,0c203,0 204,0 208,23c7,31 36,222 36,236c0,8 -58,11 -201,11l-202,0l7,42c4,23 12,46 19,50c7,4 123,8 260,8c136,0 247,1 247,3c0,1 9,54 20,117c11,63 20,125 20,138l0,22l-423,0l-424,0l-22,-137z" id="svg_38"/>
   <path d="m8696,4823c-3,-16 -17,-100 -31,-188c-47,-299 -84,-540 -110,-699c-13,-87 -22,-163 -19,-167c4,-8 324,-14 324,-6c0,1 5,29 10,62c6,33 17,105 25,160c8,55 18,112 21,128l6,27l111,0c196,0 316,40 407,132c68,69 101,142 107,238c9,129 -39,225 -143,286c-82,48 -127,54 -426,54l-276,0l-6,-27zm490,-267c21,-18 28,-32 27,-58c-2,-80 -47,-108 -173,-108l-82,0l6,28c3,15 11,57 17,95l11,67l83,0c74,0 87,-3 111,-24z" id="svg_39"/>
   <path d="m9695,4828c-3,-13 -14,-81 -24,-153c-11,-71 -45,-290 -75,-485c-31,-195 -59,-372 -62,-392l-6,-38l309,0c169,0 338,5 375,10c144,21 254,88 311,189c36,64 48,172 26,248c-13,46 -79,127 -124,151c-19,10 -18,13 22,50c58,53 87,120 88,202c0,114 -67,192 -192,225c-44,12 -123,15 -350,15l-293,0l-5,-22zm515,-258c27,-27 25,-66 -5,-95c-23,-23 -31,-25 -130,-25l-106,0l6,38c3,20 8,52 11,70l5,32l99,0c87,0 103,-3 120,-20zm-46,-381c36,-28 36,-86 0,-122c-30,-31 -78,-40 -184,-35c-60,2 -75,6 -73,18c1,8 7,48 13,88l12,72l103,0c88,0 106,-3 129,-21z" id="svg_40"/>
   <path d="m10785,4838c-2,-7 -13,-76 -25,-153c-12,-77 -28,-178 -35,-225c-8,-47 -26,-161 -40,-255c-14,-93 -35,-226 -46,-293c-11,-68 -18,-130 -15,-138c4,-11 33,-14 135,-14l129,0l50,53c81,86 282,307 351,385c35,40 65,71 67,69c2,-1 -15,-112 -37,-246c-21,-133 -37,-247 -34,-252c4,-5 78,-9 165,-9c157,0 160,0 165,23c2,12 16,96 30,187c13,91 39,253 56,360c46,295 79,504 79,513c0,4 -65,7 -144,7l-143,0l-222,-245c-123,-135 -224,-245 -226,-245c-3,0 -2,12 0,28c3,15 18,113 35,217c16,105 32,202 35,218l5,27l-166,0c-123,0 -166,-3 -169,-12z" id="svg_41"/>
   <path d="m3337,3038c176,-231 561,-685 822,-968c594,-645 1236,-1247 1941,-1819c236,-192 309,-244 323,-233c77,58 388,308 476,382c63,52 133,111 156,130c57,47 229,193 235,200c3,3 46,41 95,85c50,44 113,100 140,126c608,556 1060,1022 1554,1599c147,171 411,496 411,504c0,3 -237,6 -527,6l-528,0l-110,-127c-397,-458 -904,-972 -1396,-1415c-203,-184 -510,-448 -519,-448c-8,0 -204,167 -370,314c-387,343 -958,903 -1261,1236c-152,166 -280,310 -338,378l-53,62l-530,0c-423,0 -529,-3 -521,-12z" id="svg_42"/>
  </g>
 </g>

</svg>