<?xml version="1.0"?>
<svg width="610" height="610" xmlns="http://www.w3.org/2000/svg" xmlns:svg="http://www.w3.org/2000/svg" clip-rule="evenodd" fill-rule="evenodd" version="1.1">
 <g class="layer">
  <title>Layer 1</title>
  <g id="svg_3" transform="matrix(1, 0, 0, 1, 0, 0)">
   <path d="m285.5,1.5c108.98,-2.66 196.81,38.67 263.5,124c66.83,97.7 76.49,201.03 29,310c-53.67,104.26 -139.17,161.76 -256.5,172.5c-106.56,3.3 -193.06,-36.54 -259.5,-119.5c-60.26,-84.65 -75.93,-176.98 -47,-277c30.29,-86.29 87.12,-148.46 170.5,-186.5c32.28,-12.57 65.62,-20.41 100,-23.5z" fill="#000000" id="svg_4"/>
  </g>
  <g id="svg_5">
   <path d="m184.43,134.87c22.7,-1.9 39.53,7.1 50.5,27c4.98,16.58 9.64,33.24 14,50c2.04,12.08 0.04,23.42 -6,34c-6.47,7.47 -13.3,14.64 -20.5,21.5c19.53,61.04 59.87,101.2 121,120.5c6.52,-7.35 13.52,-14.18 21,-20.5c10.57,-6.11 21.9,-8.11 34,-6c16.76,4.36 33.42,9.02 50,14c26.53,15.59 33.36,37.43 20.5,65.5c-8.8,9.8 -17.97,19.3 -27.5,28.5c-4.31,2.77 -8.98,4.77 -14,6c-110.35,-0.24 -194.85,-46.74 -253.5,-139.5c-27.73,-47.59 -40.73,-98.92 -39,-154c1.33,-3.33 2.67,-6.67 4,-10c9.83,-9.83 19.67,-19.67 29.5,-29.5c5.04,-3.36 10.38,-5.86 16,-7.5z" fill="#ffffff" id="svg_6"/>
  </g>
 </g>

</svg>